<?xml version="1.0" standalone="no"?>
<!DOCTYPE svg PUBLIC "-//W3C//DTD SVG 20010904//EN"
 "http://www.w3.org/TR/2001/REC-SVG-20010904/DTD/svg10.dtd">
<svg version="1.0" xmlns="http://www.w3.org/2000/svg"
 width="512.000000pt" height="512.000000pt" viewBox="0 0 512.000000 512.000000"
 preserveAspectRatio="xMidYMid meet">

<g transform="translate(0.000000,512.000000) scale(0.100000,-0.100000)"
fill="#000000" stroke="none">
<path d="M5 2453 c33 -525 233 -1026 581 -1463 87 -109 315 -337 424 -424 577
-460 1282 -648 1977 -527 1079 188 1919 1033 2097 2111 16 94 36 300 36 373
l0 37 -160 0 -160 0 0 -68 c0 -37 -7 -124 -15 -194 -90 -771 -556 -1427 -1253
-1760 -771 -370 -1714 -263 -2390 270 -100 78 -298 282 -375 384 -273 365
-447 872 -447 1305 l0 63 -161 0 -161 0 7 -107z"/>
</g>
</svg>
