<svg version="1.1" xmlns="http://www.w3.org/2000/svg" xmlns:xlink="http://www.w3.org/1999/xlink" width="1560" height="804"><defs/><g><path fill="none" stroke="#02063B" paint-order="fill stroke markers" d=" M 20 445.54080186542274 L 21 447.68588675264954 L 22 449.8263103299785 L 23 451.961854210982 L 24 454.0923005071054 L 25 456.2174318498982 L 26 458.3370314131925 L 27 460.4508829352249 L 28 462.55877074070224 L 29 464.6604797628065 L 30 466.7557955651381 L 31 468.84450436359475 L 32 470.9263930481836 L 33 473.00124920476503 L 34 475.0688611367249 L 35 477.1290178865738 L 36 479.1815092574715 L 37 481.2261258346724 L 38 483.2626590068929 L 39 485.290900987595 L 40 487.3106448361876 L 41 489.32168447913966 L 42 491.32381473100656 L 43 493.31683131536454 L 44 495.30053088565313 L 45 497.2747110459227 L 46 499.2391703714843 L 47 501.1937084294615 L 48 503.13812579924 L 49 505.07222409281496 L 50 506.99580597503183 L 51 508.9086751837207 L 52 510.8106365497208 L 53 512.7014960167936 L 54 514.5810606614222 L 55 516.4491387124948 L 56 518.305539570872 L 57 520.1500738288328 L 58 521.9825532893996 L 59 523.8027909855407 L 60 525.6106011992456 L 61 527.4057994804742 L 62 529.1882026659762 L 63 530.9576288979788 L 64 532.7138976427418 L 65 534.4568297089775 L 66 536.1862472661329 L 67 537.9019738625348 L 68 539.6038344433916 L 69 541.2916553686557 L 70 542.9652644307383 L 71 544.624490872081 L 72 546.2691654025771 L 73 547.899120216845 L 74 549.5141890113485 L 75 551.1142070013658 L 76 552.6990109378011 L 77 554.2684391238415 L 78 555.8223314314553 L 79 557.3605293177288 L 80 558.882875841043 L 81 560.389215677086 L 82 561.8793951347012 L 83 563.3532621715675 L 84 564.8106664097129 L 85 566.2514591508567 L 86 567.6754933915821 L 87 569.0826238383338 L 88 570.4727069222433 L 89 571.8456008137763 L 90 573.2011654372038 L 91 574.5392624848944 L 92 575.859755431425 L 93 577.1625095475109 L 94 578.4473919137522 L 95 579.7142714341952 L 96 580.9630188497083 L 97 582.1935067511703 L 98 583.4056095924694 L 99 584.5992037033136 L 100 585.7741673018475 L 101 586.9303805070783 L 102 588.0677253511079 L 103 589.1860857911676 L 104 590.2853477214587 L 105 591.365398984795 L 106 592.4261293840456 L 107 593.4674306933782 L 108 594.489196669302 L 109 595.4913230615069 L 110 596.4737076235006 L 111 597.4362501230403 L 112 598.3788523523602 L 113 599.3014181381907 L 114 600.2038533515711 L 115 601.0860659174541 L 116 601.9479658240996 L 117 602.7894651322588 L 118 603.6104779841461 L 119 604.4109206122002 L 120 605.1907113476298 L 121 605.9497706287468 L 122 606.6880210090839 L 123 607.4053871652959 L 124 608.101795904846 L 125 608.7771761734723 L 126 609.4314590624385 L 127 610.0645778155638 L 128 610.6764678360348 L 129 611.2670666929956 L 130 611.8363141279181 L 131 612.3841520607493 L 132 612.9105245958389 L 133 613.4153780276401 L 134 613.898660846191 L 135 614.3603237423688 L 136 614.8003196129221 L 137 615.2186035652753 L 138 615.6151329221105 L 139 615.9898672257207 L 140 616.3427682421382 L 141 616.6737999650354 L 142 616.9829286193989 L 143 617.2701226649748 L 144 617.5353527994876 L 145 617.7785919616293 L 146 617.9998153338207 L 147 618.1990003447435 L 148 618.376126671643 L 149 618.5311762424019 L 150 618.6641332373845 L 151 618.77498409105 L 152 618.8637174933368 L 153 618.9303243908173 L 154 618.9747979876201 L 155 618.9971337461252 L 156 618.9973293874251 L 157 618.9753848915587 L 158 618.9313024975129 L 159 618.8650867029938 L 160 618.7767442639685 L 161 618.6662841939749 L 162 618.5337177632031 L 163 618.3790584973447 L 164 618.2023221762129 L 165 618.003526832133 L 166 617.7826927481019 L 167 617.5398424557193 L 168 617.275000732888 L 169 616.9881946012864 L 170 616.6794533236118 L 171 616.3488084005937 L 172 615.9962935677809 L 173 615.6219447920987 L 174 615.2258002681795 L 175 614.8079004144658 L 176 614.3682878690867 L 177 613.9070074855066 L 178 613.4241063279499 L 179 612.9196336665983 L 180 612.3936409725643 L 181 611.8461819126389 L 182 611.2773123438171 L 183 610.6870903075979 L 184 610.0755760240627 L 185 609.4428318857309 L 186 608.7889224511945 L 187 608.1139144385305 L 188 607.4178767184945 L 189 606.7008803074931 L 190 605.9629983603385 L 191 605.2043061627845 L 192 604.4248811238452 L 193 603.624802767897 L 194 602.8041527265644 L 195 601.9630147303917 L 196 601.1014746002995 L 197 600.2196202388291 L 198 599.317541621173 L 199 598.3953307859954 L 200 597.4530818260414 L 201 596.4908908785366 L 202 595.5088561153784 L 203 594.5070777331196 L 204 593.4856579427452 L 205 592.4447009592441 L 206 591.3843129909758 L 207 590.3046022288346 L 208 589.2056788352099 L 209 588.0876549327477 L 210 586.9506445929095 L 211 585.7947638243345 L 212 584.6201305610031 L 213 583.4268646502037 L 214 582.2150878403055 L 215 580.9849237683361 L 216 579.7364979473668 L 217 578.4699377537067 L 218 577.1853724139067 L 219 575.8829329915744 L 220 574.5627523740017 L 221 573.2249652586064 L 222 571.8697081391895 L 223 570.4971192920078 L 224 569.1073387616668 L 225 567.7005083468314 L 226 566.2767715857581 L 227 564.8362737416501 L 228 563.3791617878364 L 229 561.9055843927761 L 230 560.4156919048888 L 231 558.9096363372164 L 232 557.3875713519119 L 233 555.8496522445619 L 234 554.2960359283416 L 235 552.7268809180053 L 236 551.1423473137132 L 237 549.542596784696 L 238 547.9277925527604 L 239 546.2980993756355 L 240 544.6536835301623 L 241 542.9947127953293 L 242 541.3213564351531 L 243 539.6337851814096 L 244 537.9321712162133 L 245 536.2166881544499 L 246 534.4875110260632 L 247 532.7448162581958 L 248 530.9887816571888 L 249 529.2195863904408 L 250 527.4374109681264 L 251 525.6424372247798 L 252 523.8348483007421 L 253 522.0148286234752 L 254 520.182563888745 L 255 518.3382410416752 L 256 516.482048257673 L 257 514.6141749232297 L 258 512.7348116165977 L 259 510.8441500883461 L 260 508.9423832417964 L 261 507.02970511334036 L 262 505.10631085264293 L 263 503.1723967027311 L 264 501.2281599799712 L 265 499.27379905393684 L 266 497.3095133271697 L 267 495.335503214834 L 268 493.3519701242685 L 269 491.3591164344373 L 270 489.35714547528073 L 271 487.3462615069699 L 272 485.32666969906614 L 273 483.29857610958766 L 274 481.2621876639856 L 275 479.2177121340313 L 276 477.16535811661737 L 277 475.1053350124754 L 278 473.0378530048099 L 279 470.9631230378539 L 280 468.8813567953467 L 281 466.79276667893515 L 282 464.6975657865029 L 283 462.5959678904282 L 284 460.4881874157725 L 285 458.3744394184027 L 286 456.2549395630497 L 287 454.12990410130345 L 288 451.9995498495493 L 289 449.86409416684654 L 290 447.72375493275075 L 291 445.5787505250844 L 292 443.42929979765506 L 293 441.27562205792645 L 294 439.1179370446425 L 295 436.95646490540713 L 296 434.79142617422315 L 297 432.62304174899117 L 298 430.4515328689713 L 299 428.2771210922102 L 300 426.10002827293613 L 301 423.9204765389225 L 302 421.7386882688247 L 303 419.55488606949115 L 304 417.36929275325025 L 305 415.18213131517723 L 306 412.9936249103423 L 307 410.80399683104173 L 308 408.61347048401603 L 309 406.4222693676553 L 310 404.2306170491959 L 311 402.0387371419107 L 312 399.8468532822928 L 313 397.6551891072387 L 314 395.46396823123075 L 315 393.2734142235216 L 316 391.0837505853235 L 317 388.89520072700503 L 318 386.707987945296 L 319 384.52233540050497 L 320 382.3384660937505 L 321 380.156602844208 L 322 377.9769682663756 L 323 375.79978474736157 L 324 373.6252744241933 L 325 371.45365916115367 L 326 369.28516052714355 L 327 367.1199997730756 L 328 364.9583978093006 L 329 362.8005751830671 L 330 360.6467520560197 L 331 358.4971481817361 L 332 356.35198288330554 L 333 354.2114750309512 L 334 352.07584301969956 L 335 349.94530474709705 L 336 347.82007759097826 L 337 345.70037838728723 L 338 343.5864234079534 L 339 341.47842833882567 L 340 339.37660825766613 L 341 337.2811776122057 L 342 335.192350198264 L 343 333.1103391379363 L 344 331.03535685784794 L 345 328.96761506748163 L 346 326.9073247375759 L 347 324.8546960786003 L 348 322.80993851930776 L 349 320.7732606853664 L 350 318.74487037807364 L 351 316.72497455315465 L 352 314.7137792996464 L 353 312.7114898188702 L 354 310.7183104034961 L 355 308.734444416698 L 356 306.76009427140514 L 357 304.79546140964976 L 358 302.84074628201415 L 359 300.89614832717893 L 360 298.96186595157405 L 361 297.0380965091357 L 362 295.12503628117065 L 363 293.2228804563292 L 364 291.3318231106903 L 365 289.4520571879607 L 366 287.583774479788 L 367 285.7271656061929 L 368 283.88241999612035 L 369 282.0497258681117 L 370 280.2292702111012 L 371 278.42123876533793 L 372 276.6258160034339 L 373 274.84318511154345 L 374 273.073527970672 L 375 271.3170251381191 L 376 269.5738558290567 L 377 267.8441978982431 L 378 266.12822782187715 L 379 264.42612067959226 L 380 262.73805013659285 L 381 261.06418842593587 L 382 259.40470633095754 L 383 257.75977316784866 L 384 256.129556768379 L 385 254.51422346277408 L 386 252.91393806274397 L 387 251.32886384466792 L 388 249.75916253293545 L 389 248.20499428344544 L 390 246.66651766726574 L 391 245.14388965445394 L 392 243.63726559804203 L 393 242.1467992181859 L 394 240.67264258648083 L 395 239.21494611044622 L 396 237.7738585181796 L 397 236.3495268431813 L 398 234.94209640935375 L 399 233.55171081617297 L 400 232.17851192403813 L 401 230.8226398397973 L 402 229.48423290245196 L 403 228.16342766904307 L 404 226.86035890071796 L 405 225.57515954898017 L 406 224.30796074212537 L 407 223.05889177186185 L 408 221.82808008011887 L 409 220.6156512460442 L 410 219.4217289731912 L 411 218.24643507689706 L 412 217.08988947185458 L 413 215.95221015987696 L 414 214.83351321785844 L 415 213.73391278593044 L 416 212.6535210558166 L 417 211.59244825938566 L 418 210.5508026574041 L 419 209.5286905284911 L 420 208.52621615827456 L 421 207.5434818287507 L 422 206.58058780784881 L 423 205.63763233920065 L 424 204.71471163211638 L 425 203.81191985176903 L 426 202.92934910958658 L 427 202.06708945385355 L 428 201.22522886052386 L 429 200.40385322424467 L 430 199.60304634959212 L 431 198.82288994252139 L 432 198.06346360202994 L 433 197.32484481203602 L 434 196.60710893347323 L 435 195.91032919660137 L 436 195.23457669353468 L 437 194.57992037098862 L 438 193.946427023245 L 439 193.33416128533716 L 440 192.74318562645513 L 441 192.17356034357218 L 442 191.62534355529237 L 443 191.09859119592122 L 444 190.59335700975828 L 445 190.10969254561394 L 446 189.6476471515498 L 447 189.20726796984368 L 448 188.78859993217998 L 449 188.39168575506483 L 450 188.01656593546824 L 451 187.66327874669193 L 452 187.33186023446433 L 453 187.02234421326304 L 454 186.73476226286454 L 455 186.46914372512225 L 456 186.22551570097266 L 457 186.00390304767058 L 458 185.80432837625239 L 459 185.62681204922956 L 460 185.47137217851085 L 461 185.3380246235544 L 462 185.22678298974955 L 463 185.1376586270288 L 464 185.0706606287096 L 465 185.02579583056675 L 466 185.0030688101349 L 467 185.00248188624136 L 468 185.0240351187698 L 469 185.06772630865376 L 470 185.13355099810144 L 471 185.22150247105017 L 472 185.33157175385185 L 473 185.46374761618847 L 474 185.6180165722179 L 475 185.79436288194987 L 476 185.992768552852 L 477 186.21321334168545 L 478 186.45567475657032 L 479 186.72012805928057 L 480 187.00654626776807 L 481 187.31490015891544 L 482 187.64515827151774 L 483 187.9972869094925 L 484 188.37125014531762 L 485 188.7670098236971 L 486 189.18452556545395 L 487 189.62375477165017 L 488 190.0846526279329 L 489 190.56717210910708 L 490 191.07126398393316 L 491 191.59687682015024 L 492 192.14395698972376 L 493 192.71244867431702 L 494 193.30229387098626 L 495 193.91343239809896 L 496 194.54580190147377 L 497 195.1993378607426 L 498 195.87397359593393 L 499 196.5696402742756 L 500 197.2862669172181 L 501 198.0237804076765 L 502 198.78210549749048 L 503 199.56116481510168 L 504 200.36087887344834 L 505 201.1811660780749 L 506 202.02194273545706 L 507 202.8831230615415 L 508 203.76461919049774 L 509 204.6663411836833 L 510 205.58819703882034 L 511 206.5300926993822 L 512 207.49193206419028 L 513 208.4736169972188 L 514 209.47504733760834 L 515 210.49612090988418 L 516 211.5367335343819 L 517 212.59677903787684 L 518 213.6761492644164 L 519 214.77473408635544 L 520 215.89242141559276 L 521 217.02909721500703 L 522 218.18464551009194 L 523 219.35894840078953 L 524 220.55188607351883 L 525 221.76333681340066 L 526 222.9931770166765 L 527 224.241281203319 L 528 225.50752202983514 L 529 226.79177030225912 L 530 228.09389498933356 L 531 229.4137632358787 L 532 230.75124037634788 L 533 232.10618994856694 L 534 233.47847370765746 L 535 234.86795164014234 L 536 236.27448197823065 L 537 237.69792121428227 L 538 239.1381241154505 L 539 240.59494373849918 L 540 242.0682314447958 L 541 243.55783691547728 L 542 245.06360816678617 L 543 246.5853915655779 L 544 248.12303184499635 L 545 249.67637212031474 L 546 251.24525390494313 L 547 252.8295171265984 L 548 254.42900014363704 L 549 256.0435397615463 L 550 257.67297124959555 L 551 259.3171283576438 L 552 260.9758433331016 L 553 262.6489469380468 L 554 264.3362684664927 L 555 266.037635761804 L 556 267.7528752342621 L 557 269.48181187877714 L 558 271.22426929274275 L 559 272.98006969403457 L 560 274.74903393914997 L 561 276.53098154148495 L 562 278.32573068974955 L 563 280.1330982665184 L 564 281.9528998669134 L 565 283.7849498174187 L 566 285.6290611948252 L 567 287.485045845302 L 568 289.3527144035932 L 569 291.23187631233986 L 570 293.12233984152124 L 571 295.0239121080176 L 572 296.9363990952903 L 573 298.85960567317636 L 574 300.79333561779777 L 575 302.73739163158285 L 576 304.6915753633955 L 577 306.65568742877304 L 578 308.62952743027006 L 579 310.6128939779039 L 580 312.60558470970295 L 581 314.6073963123531 L 582 316.61812454194273 L 583 318.63756424480016 L 584 320.66550937842635 L 585 322.7017530325174 L 586 324.7460874500748 L 587 326.79830404860314 L 588 328.8581934413923 L 589 330.92554545888004 L 590 333.00014917009577 L 591 335.08179290418263 L 592 337.17026427199295 L 593 339.26535018775866 L 594 341.3668368908331 L 595 343.4745099674995 L 596 345.58815437284846 L 597 347.70755445271914 L 598 349.83249396570125 L 599 351.9627561051988 L 600 354.09812352155126 L 601 356.2383783442084 L 602 358.38330220396034 L 603 360.53267625521784 L 604 362.6862811983404 L 605 364.84389730201127 L 606 367.0053044256577 L 607 369.1702820419101 L 608 371.33860925910346 L 609 373.51006484381475 L 610 375.6844272434348 L 611 377.8614746087735 L 612 380.04098481669473 L 613 382.22273549278026 L 614 384.40650403401736 L 615 386.59206763151155 L 616 388.77920329322006 L 617 390.96768786670253 L 618 393.1572980618899 L 619 395.3478104738668 L 620 397.53900160566474 L 621 399.7306478910657 L 622 401.922525717413 L 623 404.1144114484256 L 624 406.30608144701563 L 625 408.4973120981073 L 626 410.6878798314502 L 627 412.87756114443147 L 628 415.06613262487974 L 629 417.2533709738588 L 630 419.43905302845116 L 631 421.62295578452796 L 632 423.80485641950077 L 633 425.9845323150566 L 634 428.16176107987224 L 635 430.3363205723035 L 636 432.50798892305085 L 637 434.6765445577971 L 638 436.84176621981345 L 639 439.0034329925349 L 640 441.16132432210065 L 641 443.3152200398562 L 642 445.4649003848171 L 643 447.61014602609254 L 644 449.75073808526145 L 645 451.886458158706 L 646 454.0170883398946 L 647 456.1424112416155 L 648 458.2622100181558 L 649 460.3762683874264 L 650 462.48437065302994 L 651 464.5863017262669 L 652 466.68184714808183 L 653 468.77079311094474 L 654 470.8529264806649 L 655 472.92803481813735 L 656 474.9959064010184 L 657 477.0563302453265 L 658 479.1090961269695 L 659 481.1539946031943 L 660 483.1908170339547 L 661 485.2193556032 L 662 487.23940334007824 L 663 489.250754140053 L 664 491.25320278593205 L 665 493.24654496880646 L 666 495.23057730889496 L 667 497.20509737629527 L 668 499.16990371163837 L 669 501.1247958466423 L 670 503.0695743245664 L 671 505.00404072056233 L 672 506.9279976619181 L 673 508.8412488481965 L 674 510.7435990712642 L 675 512.6348542352075 L 676 514.5148213761365 L 677 516.3833086818735 L 678 518.2401255115226 L 679 520.0850824149214 L 680 521.9179911519701 L 681 523.7386647118382 L 682 525.5469173320441 L 683 527.3425645174093 L 684 529.1254230588819 L 685 530.8953110522294 L 686 532.6520479165981 L 687 534.3954544129386 L 688 536.125352662292 L 689 537.8415661639399 L 690 539.5439198134126 L 691 541.2322399203542 L 692 542.9063542262452 L 693 544.5660919219772 L 694 546.2112836652806 L 695 547.8417615980024 L 696 549.4573593632335 L 697 551.057912122281 L 698 552.6432565714867 L 699 554.2132309588901 L 700 555.7676751007303 L 701 557.3064303977902 L 702 558.8293398515788 L 703 560.3362480803485 L 704 561.8270013349495 L 705 563.301447514517 L 706 564.759436181989 L 707 566.2008185794558 L 708 567.6254476433384 L 709 569.0331780193919 L 710 570.4238660775371 L 711 571.7973699265144 L 712 573.1535494283618 L 713 574.4922662127113 L 714 575.8133836909088 L 715 577.116767069949 L 716 578.4022833662283 L 717 579.6698014191135 L 718 580.919191904324 L 719 582.1503273471262 L 720 583.3630821353402 L 721 584.557332532156 L 722 585.7329566887578 L 723 586.8898346567565 L 724 588.0278484004282 L 725 589.1468818087567 L 726 590.2468207072809 L 727 591.3275528697438 L 728 592.3889680295425 L 729 593.4309578909791 L 730 594.4534161403101 L 731 595.4562384565929 L 732 596.4393225223305 L 733 597.4025680339104 L 734 598.3458767118382 L 735 599.2691523107658 L 736 600.172300629311 L 737 601.0552295196685 L 738 601.9178488970118 L 739 602.7600707486848 L 740 603.5818091431815 L 741 604.3829802389134 L 742 605.1635022927644 L 743 605.92329566843 L 744 606.6622828445435 L 745 607.3803884225852 L 746 608.0775391345749 L 747 608.7536638505479 L 748 609.4086935858122 L 749 610.0425615079869 L 750 610.6552029438208 L 751 611.2465553857916 L 752 611.8165584984831 L 753 612.3651541247415 L 754 612.8922862916086 L 755 613.3979012160331 L 756 613.8819473103582 L 757 614.3443751875848 L 758 614.7851376664104 L 759 615.204189776043 L 760 615.6014887607897 L 761 615.976994084419 L 762 616.3306674342961 L 763 616.6624727252928 L 764 616.9723761034688 L 765 617.2603459495256 L 766 617.526352882033 L 767 617.7703697604268 L 768 617.9923716877777 L 769 618.1923360133316 L 770 618.3702423348209 L 771 618.5260725005459 L 772 618.6598106112268 L 773 618.7714430216263 L 774 618.8609583419408 L 775 618.9283474389638 L 776 618.9736034370168 L 777 618.9967217186513 L 778 618.9976999251197 L 779 618.9765379566161 L 780 618.9332379722862 L 781 618.8678043900076 L 782 618.7802438859383 L 783 618.6705653938359 L 784 618.5387801041466 L 785 618.3849014628622 L 786 618.2089451701495 L 787 618.0109291787476 L 788 617.7908736921366 L 789 617.548801162476 L 790 617.284736288314 L 791 616.9987060120677 L 792 616.6907395172739 L 793 616.3608682256115 L 794 616.009125793696 L 795 615.6355481096448 L 796 615.2401732894167 L 797 614.8230416729214 L 798 614.3841958199049 L 799 613.9236805056066 L 800 613.4415427161913 L 801 612.9378316439544 L 802 612.4125986823038 L 803 611.8658974205157 L 804 611.2977836382668 L 805 610.7083152999438 L 806 610.0975525487286 L 807 609.4655577004623 L 808 608.8123952372871 L 809 608.1381318010667 L 810 607.4428361865879 L 811 606.7265793345407 L 812 605.9894343242805 L 813 605.2314763663718 L 814 604.4527827949147 L 815 603.6534330596537 L 816 602.8335087178731 L 817 601.993093426074 L 818 601.1322729314402 L 819 600.2511350630884 L 820 599.3497697231084 L 821 598.4282688773883 L 822 597.4867265462336 L 823 596.5252387947728 L 824 595.5439037231567 L 825 594.5428214565487 L 826 593.5220941349096 L 827 592.481825902576 L 828 591.4221228976344 L 829 590.3430932410924 L 830 589.2448470258471 L 831 588.1274963054515 L 832 586.9911550826832 L 833 585.8359392979119 L 834 584.6619668172692 L 835 583.4693574206249 L 836 582.258232789364 L 837 581.0287164939726 L 838 579.7809339814298 L 839 578.5150125624084 L 840 577.2310813982851 L 841 575.9292714879629 L 842 574.6097156545048 L 843 573.2725485315825 L 844 571.9179065497392 L 845 570.5459279224698 L 846 569.1567526321189 L 847 567.7505224155991 L 848 566.3273807499293 L 849 564.8874728375952 L 850 563.4309455917353 L 851 561.9579476211511 L 852 560.4686292151441 L 853 558.9631423281826 L 854 557.4416405643974 L 855 555.90427916191 L 856 554.3512149769932 L 857 552.782606468068 L 858 551.1986136795344 L 859 549.5993982254445 L 860 547.9851232730115 L 861 546.3559535259621 L 862 544.7120552077325 L 863 543.0535960445077 L 864 541.3807452481095 L 865 539.6936734987304 L 866 537.992552927521 L 867 536.2775570990268 L 868 534.5488609934788 L 869 532.8066409889414 L 870 531.051074843316 L 871 529.2823416762042 L 872 527.5006219506332 L 873 525.7060974546429 L 874 523.8989512827375 L 875 522.0793678172054 L 876 520.2475327093063 L 877 518.4036328603285 L 878 516.5478564025211 L 879 514.6803926798981 L 880 512.8014322289193 L 881 510.91116675905084 L 882 509.00978913320455 L 883 507.09749334805963 L 884 505.17447451427114 L 885 503.2409288365613 L 886 501.2970535937015 L 887 499.34304711838377 L 888 497.3791087769855 L 889 495.4054389492268 L 890 493.4222390077277 L 891 491.42971129746115 L 892 489.42805911510806 L 893 487.4174866883148 L 894 485.39819915485634 L 895 483.37040254170626 L 896 481.33430374401445 L 897 479.2901105040001 L 898 477.23803138975404 L 899 475.1782757739594 L 900 473.1110538125291 L 901 471.0365764231642 L 902 468.95505526383266 L 903 466.8667027111761 L 904 464.7717318388398 L 905 462.67035639573294 L 906 460.5627907842203 L 907 458.44925003824676 L 908 456.32994980139665 L 909 454.2051063048934 L 910 452.07493634553623 L 911 449.93965726358107 L 912 447.7994869205652 L 913 445.6546436770792 L 914 443.5053463704868 L 915 441.3518142925985 L 916 439.19426716729623 L 917 437.03292512811555 L 918 434.86800869578514 L 919 432.69973875572776 L 920 430.528336535522 L 921 428.3540235823325 L 922 426.1770217403044 L 923 423.9975531279289 L 924 421.8158401153806 L 925 419.6321053018292 L 926 417.4465714927283 L 927 415.25946167708094 L 928 413.0709990046905 L 929 410.88140676339145 L 930 408.6909083562676 L 931 406.49972727885836 L 932 404.3080870963562 L 933 402.1162114207945 L 934 399.9243238882354 L 935 397.73264813595 L 936 395.54140777960185 L 937 393.35082639043117 L 938 391.1611274724444 L 939 388.97253443960875 L 940 386.78527059305964 L 941 384.59955909831586 L 942 382.4156229625103 L 943 380.2336850116371 L 944 378.0539678678166 L 945 375.8766939265803 L 946 373.7020853341818 L 947 371.5303639649302 L 948 369.3617513985525 L 949 367.1964688975859 L 950 365.03473738480307 L 951 362.8767774206698 L 952 360.72280918084357 L 953 358.5730524337079 L 954 356.4277265179495 L 955 354.2870503201794 L 956 352.15124225260047 L 957 350.02052023072144 L 958 347.8951016511252 L 959 345.7752033692865 L 960 343.66104167744663 L 961 341.55283228254547 L 962 339.4507902842125 L 963 337.35513015282106 L 964 335.2660657076045 L 965 333.18381009484256 L 966 331.1085757661123 L 967 329.0405744566127 L 968 326.98001716356094 L 969 324.9271141246651 L 970 322.88207479667216 L 971 320.84510783399935 L 972 318.8164210674439 L 973 316.79622148297847 L 974 314.78471520063226 L 975 312.78210745346155 L 976 310.7886025666079 L 977 308.80440393645335 L 978 306.82971400986656 L 979 304.8647342635476 L 980 302.9096651834711 L 981 300.9647062444317 L 982 299.03005588968966 L 983 297.1059115107264 L 984 295.1924694271031 L 985 293.28992486643074 L 986 291.3984719444508 L 987 289.51830364523073 L 988 287.6496118014719 L 989 285.7925870749392 L 990 283.9474189370068 L 991 282.1142956493264 L 992 280.2934042446193 L 993 278.4849305075936 L 994 276.68905895598857 L 995 274.90597282174747 L 996 273.13585403232423 L 997 271.37888319212055 L 998 269.63523956405857 L 999 267.90510105129135 L 1000 266.1886441790515 L 1001 264.48604407663936 L 1002 262.7974744595563 L 1003 261.12310761177946 L 1004 259.46311436818405 L 1005 257.817664097113 L 1006 256.1869246830968 L 1007 254.57106250972313 L 1008 252.9702424426626 L 1009 251.38462781284636 L 1010 249.8143803998018 L 1011 248.2596604151463 L 1012 246.7206264862412 L 1013 245.19743564000595 L 1014 243.6902432868985 L 1015 242.19920320505761 L 1016 240.7244675246133 L 1017 239.26618671216505 L 1018 237.82450955543004 L 1019 236.3995831480613 L 1020 234.99155287464157 L 1021 233.60056239584839 L 1022 232.2267536337971 L 1023 230.87026675756036 L 1024 229.53124016886682 L 1025 228.20981048798032 L 1026 226.90611253975965 L 1027 225.62027933990385 L 1028 224.3524420813796 L 1029 223.10273012103607 L 1030 221.87127096640666 L 1031 220.65819026269963 L 1032 219.46361177997775 L 1033 218.28765740053143 L 1034 217.13044710644218 L 1035 215.9920989673411 L 1036 214.8727291283624 L 1037 213.77245179829333 L 1038 212.69137923792061 L 1039 211.62962174857785 L 1040 210.58728766089067 L 1041 209.564483323724 L 1042 208.5613130933314 L 1043 207.5778793227077 L 1044 206.61428235114536 L 1045 205.67062049399797 L 1046 204.7469900326484 L 1047 203.84348520468552 L 1048 202.96019819428906 L 1049 202.09721912282436 L 1050 201.2546360396467 L 1051 200.4325349131186 L 1052 199.63099962183773 L 1053 198.85011194607924 L 1054 198.08995155945155 L 1055 197.35059602076754 L 1056 196.63212076613058 L 1057 195.9345991012388 L 1058 195.2581021939051 L 1059 194.60269906679608 L 1060 193.9684565903897 L 1061 193.35543947615255 L 1062 192.76371026993738 L 1063 192.19332934560123 L 1064 191.6443548988462 L 1065 191.11684294128113 L 1066 190.61084729470718 L 1067 190.12641958562614 L 1068 189.66360923997323 L 1069 189.2224634780738 L 1070 188.80302730982604 L 1071 188.40534353010818 L 1072 188.02945271441243 L 1073 187.67539321470483 L 1074 187.34320115551247 L 1075 187.0329104302374 L 1076 186.7445526976989 L 1077 186.47815737890306 L 1078 186.23375165404107 L 1079 186.011360459716 L 1080 185.81100648639858 L 1081 185.63271017611203 L 1082 185.47648972034645 L 1083 185.34236105820267 L 1084 185.2303378747661 L 1085 185.14043159971033 L 1086 185.072651406131 L 1087 185.0270042096099 L 1088 185.00349466750947 L 1089 185.00212517849735 L 1090 185.02289588230187 L 1091 185.06580465969776 L 1092 185.13084713272227 L 1093 185.21801666512195 L 1094 185.32730436302978 L 1095 185.45869907587243 L 1096 185.61218739750814 L 1097 185.78775366759442 L 1098 185.98537997318593 L 1099 186.20504615056205 L 1100 186.4467297872844 L 1101 186.71040622448322 L 1102 186.99604855937358 L 1103 187.30362764800012 L 1104 187.63311210821072 L 1105 187.98446832285816 L 1106 188.3576604432305 L 1107 188.75265039270818 L 1108 189.1693978706494 L 1109 189.60786035650162 L 1110 190.06799311414025 L 1111 190.5497491964327 L 1112 191.05307945002883 L 1113 191.5779325203756 L 1114 192.12425485695692 L 1115 192.6919907187575 L 1116 193.2810821799498 L 1117 193.89146913580447 L 1118 194.52308930882282 L 1119 195.1758782550906 L 1120 195.84976937085352 L 1121 196.54469389931268 L 1122 197.26058093763982 L 1123 197.99735744421147 L 1124 198.75494824606125 L 1125 199.53327604655027 L 1126 200.33226143325285 L 1127 201.1518228860595 L 1128 201.99187678549418 L 1129 202.852337421246 L 1130 203.73311700091412 L 1131 204.6341256589656 L 1132 205.55527146590356 L 1133 206.49646043764739 L 1134 207.45759654512148 L 1135 208.4385817240533 L 1136 209.43931588497856 L 1137 210.45969692345386 L 1138 211.49962073047365 L 1139 212.55898120309277 L 1140 213.63767025525212 L 1141 214.73557782880656 L 1142 215.85259190475387 L 1143 216.98859851466486 L 1144 218.14348175231024 L 1145 219.3171237854874 L 1146 220.50940486804242 L 1147 221.72020335208782 L 1148 222.94939570041402 L 1149 224.19685649909457 L 1150 225.46245847028086 L 1151 226.74607248518907 L 1152 228.04756757727486 L 1153 229.36681095559584 L 1154 230.70366801836002 L 1155 232.05800236665996 L 1156 233.42967581838818 L 1157 234.81854842233676 L 1158 236.22447847247622 L 1159 237.64732252241367 L 1160 239.08693540002872 L 1161 240.54317022228497 L 1162 242.01587841021743 L 1163 243.50490970409052 L 1164 245.01011217872994 L 1165 246.5313322590233 L 1166 248.06841473558922 L 1167 249.62120278061323 L 1168 251.18953796384974 L 1169 252.773260268785 L 1170 254.37220810896466 L 1171 255.98621834448 L 1172 257.61512629861306 L 1173 259.25876577463833 L 1174 260.9169690727808 L 1175 262.5895670073244 L 1176 264.2763889238754 L 1177 265.97726271677385 L 1178 267.69201484665314 L 1179 269.4204703581461 L 1180 271.1624528977369 L 1181 272.91778473175225 L 1182 274.68628676449697 L 1183 276.46777855652647 L 1184 278.262078343057 L 1185 280.0690030525109 L 1186 281.88836832519627 L 1187 283.7199885321154 L 1188 285.56367679390564 L 1189 287.41924499990614 L 1190 289.28650382735117 L 1191 291.16526276068595 L 1192 293.055330111005 L 1193 294.9565130356113 L 1194 296.86861755769 L 1195 298.79144858610096 L 1196 300.72480993528353 L 1197 302.66850434527333 L 1198 304.6223335018283 L 1199 306.5860980566638 L 1200 308.55959764779004 L 1201 310.5426309199565 L 1202 312.53499554519544 L 1203 314.5364882434655 L 1204 316.54690480339195 L 1205 318.56604010310355 L 1206 320.5936881311592 L 1207 322.6296420075681 L 1208 324.673694004898 L 1209 326.72563556946875 L 1210 328.7852573426311 L 1211 330.8523491821287 L 1212 332.9267001835368 L 1213 335.00809870178205 L 1214 337.096332372736 L 1215 339.1911881348832 L 1216 341.2924522510584 L 1217 343.39991033025643 L 1218 345.51334734950365 L 1219 347.6325476757983 L 1220 349.7572950881113 L 1221 351.88737279944655 L 1222 354.02256347896036 L 1223 356.16264927413465 L 1224 358.3074118330063 L 1225 360.45663232644284 L 1226 362.6100914704713 L 1227 364.76756954865095 L 1228 366.92884643449133 L 1229 369.0937016139108 L 1230 371.2619142077374 L 1231 373.43326299424245 L 1232 375.60752643171344 L 1233 377.7844826810573 L 1234 379.96390962843464 L 1235 382.14558490792155 L 1236 384.329285924199 L 1237 386.51478987526167 L 1238 388.7018737751522 L 1239 390.8903144767117 L 1240 393.0798886943474 L 1241 395.27037302681407 L 1242 397.46154398000914 L 1243 399.65317798977304 L 1244 401.84505144470137 L 1245 404.03694070895915 L 1246 406.22862214509837 L 1247 408.4198721368753 L 1248 410.6104671120674 L 1249 412.80018356528194 L 1250 414.98879808076197 L 1251 417.17608735518047 L 1252 419.36182822042434 L 1253 421.54579766636357 L 1254 423.7277728636063 L 1255 425.90753118623184 L 1256 428.0848502345065 L 1257 430.2595078575748 L 1258 432.43128217612514 L 1259 434.5999516050281 L 1260 436.7652948759443 L 1261 438.92709105990207 L 1262 441.08511958983604 L 1263 443.23916028309327 L 1264 445.388993363898 L 1265 447.5343994857752 L 1266 449.6751597539301 L 1267 451.81105574758317 L 1268 453.9418695422536 L 1269 456.0673837319953 L 1270 458.18738145157846 L 1271 460.3016463986162 L 1272 462.4099628556333 L 1273 464.5121157120774 L 1274 466.6078904862643 L 1275 468.697073347263 L 1276 470.7794511367124 L 1277 472.8548113905696 L 1278 474.92294236078726 L 1279 476.98363303691974 L 1280 479.03667316764984 L 1281 481.08185328224255 L 1282 483.1189647119165 L 1283 485.14779961113464 L 1284 487.1681509788101 L 1285 489.17981267942776 L 1286 491.18257946407437 L 1287 493.17624699138105 L 1288 495.160611848372 L 1289 497.13547157121843 L 1290 499.1006246658962 L 1291 501.05587062874343 L 1292 503.00100996691947 L 1293 504.93584421875687 L 1294 506.86017597401167 L 1295 508.77380889400473 L 1296 510.67654773165424 L 1297 512.5681983513962 L 1298 514.4485677489934 L 1299 516.3174640712252 L 1300 518.1746966354644 L 1301 520.0200759491313 L 1302 521.8534137290278 L 1303 523.6745229205478 L 1304 525.4832177167634 L 1305 527.2793135773807 L 1306 529.0626272475693 L 1307 530.8329767766604 L 1308 532.5901815367104 L 1309 534.3340622409295 L 1310 536.064440961977 L 1311 537.7811411501116 L 1312 539.483987651207 L 1313 541.1728067246224 L 1314 542.8474260609287 L 1315 544.5076747994889 L 1316 546.1533835458928 L 1317 547.7843843892376 L 1318 549.4005109192618 L 1319 551.0015982433227 L 1320 552.5874830032212 L 1321 554.1580033918685 L 1322 555.7129991697954 L 1323 557.2523116815023 L 1324 558.7757838716454 L 1325 560.2832603010615 L 1326 561.7745871626278 L 1327 563.2496122969541 L 1328 564.7081852079078 L 1329 566.1501570779701 L 1330 567.5753807834174 L 1331 568.9837109093343 L 1332 570.3750037644493 L 1333 571.7491173957958 L 1334 573.1059116031952 L 1335 574.4452479535623 L 1336 575.7669897950287 L 1337 577.0710022708855 L 1338 578.3571523333427 L 1339 579.6253087571043 L 1340 580.8753421527566 L 1341 582.1071249799708 L 1342 583.3205315605144 L 1343 584.5154380910751 L 1344 585.6917226558922 L 1345 586.8492652391957 L 1346 587.9879477374507 L 1347 589.107653971409 L 1348 590.2082696979612 L 1349 591.2896826217936 L 1350 592.3517824068458 L 1351 593.3944606875677 L 1352 594.4176110799767 L 1353 595.4211291925114 L 1354 596.4049126366829 L 1355 597.3688610375211 L 1356 598.3128760438168 L 1357 599.2368613381552 L 1358 600.1407226467442 L 1359 601.0243677490321 L 1360 601.8877064871183 L 1361 602.7306507749503 L 1362 603.5531146073122 L 1363 604.3550140685998 L 1364 605.1362673413817 L 1365 605.8967947147476 L 1366 606.6365185924415 L 1367 607.3553635007784 L 1368 608.0532560963445 L 1369 608.7301251734812 L 1370 609.3859016715494 L 1371 610.0205186819763 L 1372 610.6339114550819 L 1373 611.2260174066853 L 1374 611.7967761244898 L 1375 612.3461293742477 L 1376 612.8740211057006 L 1377 613.3803974582995 L 1378 613.8652067666994 L 1379 614.3283995660306 L 1380 614.7699285969461 L 1381 615.189748810443 L 1382 615.5878173724591 L 1383 615.964093668243 L 1384 616.3185393064983 L 1385 616.6511181233006 L 1386 616.9617961857869 L 1387 617.2505417956181 L 1388 617.5173254922131 L 1389 617.7621200557551 L 1390 617.9849005099675 L 1391 618.1856441246639 L 1392 618.364330418066 L 1393 618.5209411588938 L 1394 618.6554603682262 L 1395 618.7678743211302 L 1396 618.8581715480622 L 1397 618.9263428360379 L 1398 618.9723812295723 L 1399 618.9962820313896 L 1400 618.9980428029018 L 1401 618.9776633644583 L 1402 618.9351457953637 L 1403 618.8704944336661 L 1404 618.7837158757138 L 1405 618.674818975483 L 1406 618.5438148436742 L 1407 618.3907168465784 L 1408 618.2155406047132 L 1409 618.0183039912297 L 1410 617.7990271300885 L 1411 617.557732394006 L 1412 617.2944444021728 L 1413 617.0091900177409 L 1414 616.7019983450832 L 1415 616.372900726824 L 1416 616.0219307406411 L 1417 615.6491241958398 L 1418 615.2545191296996 L 1419 614.8381558035928 L 1420 614.4000766988772 L 1421 613.9403265125611 L 1422 613.4589521527434 L 1423 612.9560027338274 L 1424 612.4315295715098 L 1425 611.8855861775447 L 1426 611.3182282542843 L 1427 610.7295136889951 L 1428 610.1195025479517 L 1429 609.4882570703089 L 1430 608.8358416617509 L 1431 608.16232288792 L 1432 607.4677694676253 L 1433 606.7522522658312 L 1434 606.0158442864267 L 1435 605.2586206647775 L 1436 604.4806586600594 L 1437 603.682037647376 L 1438 602.8628391096601 L 1439 602.0231466293595 L 1440 601.1630458799098 L 1441 600.2826246169923 L 1442 599.3819726695817 L 1443 598.4611819307796 L 1444 597.5203463484391 L 1445 596.55956191558 L 1446 595.5789266605932 L 1447 594.5785406372404 L 1448 593.5585059144449 L 1449 592.5189265658779 L 1450 591.4599086593395 L 1451 590.3815602459371 L 1452 589.2839913490602 L 1453 588.1673139531562 L 1454 587.0316419923031 L 1455 585.8770913385862 L 1456 584.7037797902744 L 1457 583.5118270598027 L 1458 582.301354761557 L 1459 581.0724863994658 L 1460 579.8253473543998 L 1461 578.5600648713792 L 1462 577.2767680465906 L 1463 575.9755878142155 L 1464 574.6566569330715 L 1465 573.3201099730661 L 1466 571.9660833014676 L 1467 570.5947150689913 L 1468 569.2061451957036 L 1469 567.8005153567467 L 1470 566.3779689678832 L 1471 564.9386511708628 L 1472 563.4827088186149 L 1473 562.0102904602645 L 1474 560.5215463259757 L 1475 559.0166283116241 L 1476 557.4956899632989 L 1477 555.9588864616361 L 1478 554.4063746059863 L 1479 552.8383127984164 L 1480 551.2548610275472 L 1481 549.6561808522309 L 1482 548.0424353850666 L 1483 546.4137892757574 L 1484 544.7704086943131 L 1485 543.1124613140944 L 1486 541.4401162947056 L 1487 539.753544264736 L 1488 538.0529173043494 L 1489 536.3384089277289 L 1490 534.6101940653704 L 1491 532.8684490462373 L 1492 531.1133515797686 L 1493 529.3450807377471 L 1494 527.5638169360292 L 1495 525.769741916137 L 1496 523.9630387267144 L 1497 522.1438917048529 L 1498 520.3124864572815 L 1499 518.469009841431 L 1500 516.6136499463678 L 1501 514.7465960736043 L 1502 512.8680387177832 L 1503 510.978169547243 L 1504 509.0771813844612 L 1505 507.16526818638096 L 1506 505.2426250246217 L 1507 503.30944806557636 L 1508 501.3659345503955 L 1509 499.4122827748645 L 1510 497.44869206917065 L 1511 495.4753627775655 L 1512 493.49249623792423 L 1513 491.5002947612031 L 1514 489.49896161079687 L 1515 487.4887009818017 L 1516 485.4697179801798 L 1517 483.4422186018333 L 1518 481.40640971158604 L 1519 479.3624990220777 L 1520 477.310695072571 L 1521 475.25120720767336 L 1522 473.18424555597966 L 1523 471.1100210086312 L 1524 469.0287451977994 L 1525 466.94063047509275 L 1526 464.8458898898911 L 1527 462.7447371676069 L 1528 460.6373866878811 L 1529 458.5240534627086 L 1530 456.404953114501 L 1531 454.28030185408693 L 1532 452.1503164586522 L 1533 450.015214249621 L 1534 447.87521307048473 L 1535 445.73053126457404 L 1536 443.58138765278176 L 1537 441.4280015112367 L 1538 439.2705925489314 L 1539 437.1093808853039" stroke-linecap="round" stroke-linejoin="round" stroke-miterlimit="10" stroke-width="16"/></g></svg>